name analog
datacolumns 19
datarows 85
range 0.3985 0.4405
endheader
time	ground_force_vx	ground_force_vy	ground_force_vz	ground_force_px	ground_force_py	ground_force_pz	l_ground_force_vx	l_ground_force_vy	l_ground_force_vz	l_ground_force_px	l_ground_force_py	l_ground_force_pz	ground_torque_x	ground_torque_y	ground_torque_z	l_ground_torque_x	l_ground_torque_y	l_ground_torque_z
0.3985	-0.0	-0.0	-0.0	13.206911087036133	-2.0412437915802	-606.7681274414062	-0.0	-0.0	-0.0	-0.0	-0.0	-0.0	-0.0	-0.0	-0.0	-0.0	-0.0	-0.0
0.399	-0.0	-0.0	-0.0	13.204480171203612	-2.0473527908325195	-605.7088623046875	-0.0	-0.0	-0.0	-0.0	-0.0	-0.0	-0.0	-0.0	-0.0	-0.0	-0.0	-0.0
0.3995	-0.0	-0.0	-0.0	12.921910285949709	-1.8785393238067627	-606.0567626953125	-0.0	-0.0	-0.0	-0.0	-0.0	-0.0	-0.0	-0.0	-0.0	-0.0	-0.0	-0.0
0.4	-0.0	-0.0	-0.0	11.952774047851562	-2.146294355392456	-605.008544921875	-0.0	-0.0	-0.0	-0.0	-0.0	-0.0	-0.0	-0.0	-0.0	-0.0	-0.0	-0.0
0.4005	-0.0	-0.0	-0.0	11.056153297424316	-1.6979362964630127	-606.76318359375	-0.0	-0.0	-0.0	-0.0	-0.0	-0.0	-0.0	-0.0	-0.0	-0.0	-0.0	-0.0
0.401	-0.0	-0.0	-0.0	10.262256622314451	-1.3323886394500732	-609.2413940429688	-0.0	-0.0	-0.0	-0.0	-0.0	-0.0	-0.0	-0.0	-0.0	-0.0	-0.0	-0.0
0.4015	-0.0	-0.0	-0.0	8.75061321258545	-0.7941974401473999	-612.7482299804688	-0.0	-0.0	-0.0	-0.0	-0.0	-0.0	-0.0	-0.0	-0.0	-0.0	-0.0	-0.0
0.402	-0.0	-0.0	-0.0	7.415907382965088	-0.3581537306308746	-614.8927001953125	-0.0	-0.0	-0.0	-0.0	-0.0	-0.0	-0.0	-0.0	-0.0	-0.0	-0.0	-0.0
0.4025	-0.0	-0.0	-0.0	7.138511657714844	-0.2740678787231445	-618.0451049804688	-0.0	-0.0	-0.0	-0.0	-0.0	-0.0	-0.0	-0.0	-0.0	-0.0	-0.0	-0.0
0.403	-0.0	-0.0	-0.0	6.514110088348389	-0.969986855983734	-619.491455078125	-0.0	-0.0	-0.0	-0.0	-0.0	-0.0	-0.0	-0.0	-0.0	-0.0	-0.0	-0.0
0.4035	-0.0	-0.0	-0.0	7.145826816558838	-1.0677692890167236	-622.6278076171875	-0.0	-0.0	-0.0	-0.0	-0.0	-0.0	-0.0	-0.0	-0.0	-0.0	-0.0	-0.0
0.404	-0.0	-0.0	-0.0	7.493682861328125	-0.999117910861969	-622.6710815429688	-0.0	-0.0	-0.0	-0.0	-0.0	-0.0	-0.0	-0.0	-0.0	-0.0	-0.0	-0.0
0.4045	-0.0	-0.0	-0.0	7.294106006622314	-1.7768434286117554	-620.93603515625	-0.0	-0.0	-0.0	-0.0	-0.0	-0.0	-0.0	-0.0	-0.0	-0.0	-0.0	-0.0
0.405	-0.0	-0.0	-0.0	6.690788269042969	-1.6915197372436523	-619.4699096679688	-0.0	-0.0	-0.0	-0.0	-0.0	-0.0	-0.0	-0.0	-0.0	-0.0	-0.0	-0.0
0.4055	-0.0	-0.0	-0.0	6.506269454956055	-1.4159328937530518	-616.6602783203125	-0.0	-0.0	-0.0	-0.0	-0.0	-0.0	-0.0	-0.0	-0.0	-0.0	-0.0	-0.0
0.406	-0.0	-0.0	-0.0	6.4272942543029785	-0.3606555461883545	-611.7649536132812	-0.0	-0.0	-0.0	-0.0	-0.0	-0.0	-0.0	-0.0	-0.0	-0.0	-0.0	-0.0
0.40650000000000003	-0.0	-0.0	-0.0	5.813545227050781	0.5241761207580566	-610.6901245117188	-0.0	-0.0	-0.0	-0.0	-0.0	-0.0	-0.0	-0.0	-0.0	-0.0	-0.0	-0.0
0.40700000000000003	-0.0	-0.0	-0.0	6.42315673828125	0.7196239233016968	-610.6654663085938	-0.0	-0.0	-0.0	-0.0	-0.0	-0.0	-0.0	-0.0	-0.0	-0.0	-0.0	-0.0
0.40750000000000003	-0.0	-0.0	-0.0	6.753215789794922	0.1827206313610077	-612.3875732421875	-0.0	-0.0	-0.0	-0.0	-0.0	-0.0	-0.0	-0.0	-0.0	-0.0	-0.0	-0.0
0.40800000000000003	-0.0	-0.0	-0.0	6.075533866882324	-0.6923189163208008	-613.4644165039062	-0.0	-0.0	-0.0	-0.0	-0.0	-0.0	-0.0	-0.0	-0.0	-0.0	-0.0	-0.0
0.40850000000000003	-0.0	-0.0	-0.0	6.864492416381836	-0.8163120150566101	-612.7578735351562	-0.0	-0.0	-0.0	-0.0	-0.0	-0.0	-0.0	-0.0	-0.0	-0.0	-0.0	-0.0
0.40900000000000003	-0.0	-0.0	-0.0	6.873999118804932	-1.7850008010864258	-613.4545288085938	-0.0	-0.0	-0.0	-0.0	-0.0	-0.0	-0.0	-0.0	-0.0	-0.0	-0.0	-0.0
0.40950000000000003	-0.0	-0.0	-0.0	7.059969425201416	-1.861876130104065	-614.9839477539062	-0.0	-0.0	-0.0	-0.0	-0.0	-0.0	-0.0	-0.0	-0.0	-0.0	-0.0	-0.0
0.41000000000000003	-0.0	-0.0	-0.0	6.509862899780273	-1.16369891166687	-618.37841796875	-0.0	-0.0	-0.0	-0.0	-0.0	-0.0	-0.0	-0.0	-0.0	-0.0	-0.0	-0.0
0.41050000000000003	-0.0	-0.0	-0.0	5.788451194763184	-0.988101601600647	-620.2042236328125	-0.0	-0.0	-0.0	-0.0	-0.0	-0.0	-0.0	-0.0	-0.0	-0.0	-0.0	-0.0
0.41100000000000003	-0.0	-0.0	-0.0	5.098150730133057	-0.9804344177246094	-622.625	-0.0	-0.0	-0.0	-0.0	-0.0	-0.0	-0.0	-0.0	-0.0	-0.0	-0.0	-0.0
0.41150000000000003	-0.0	-0.0	-0.0	5.1688761711120605	-0.1077805161476135	-623.7263793945312	-0.0	-0.0	-0.0	-0.0	-0.0	-0.0	-0.0	-0.0	-0.0	-0.0	-0.0	-0.0
0.41200000000000003	-0.0	-0.0	-0.0	4.533298969268799	0.440177857875824	-627.9323120117188	-0.0	-0.0	-0.0	-0.0	-0.0	-0.0	-0.0	-0.0	-0.0	-0.0	-0.0	-0.0
0.41250000000000003	-0.0	-0.0	-0.0	3.582388639450073	0.7102521061897278	-628.682373046875	-0.0	-0.0	-0.0	-0.0	-0.0	-0.0	-0.0	-0.0	-0.0	-0.0	-0.0	-0.0
0.41300000000000003	-0.0	-0.0	-0.0	3.0274975299835205	0.9889166355133056	-630.4149169921875	-0.0	-0.0	-0.0	-0.0	-0.0	-0.0	-0.0	-0.0	-0.0	-0.0	-0.0	-0.0
0.41350000000000003	-0.0	-0.0	-0.0	2.14105224609375	1.497815728187561	-631.0980834960938	-0.0	-0.0	-0.0	-0.0	-0.0	-0.0	-0.0	-0.0	-0.0	-0.0	-0.0	-0.0
0.41400000000000003	-0.0	-0.0	-0.0	1.885176658630371	1.5926017761230469	-632.4754638671875	-0.0	-0.0	-0.0	-0.0	-0.0	-0.0	-0.0	-0.0	-0.0	-0.0	-0.0	-0.0
0.41450000000000004	-0.0	-0.0	-0.0	1.8704270124435425	1.6043472290039062	-631.49755859375	-0.0	-0.0	-0.0	-0.0	-0.0	-0.0	-0.0	-0.0	-0.0	-0.0	-0.0	-0.0
0.41500000000000004	-0.0	-0.0	-0.0	2.322539091110229	1.6104735136032104	-631.1447143554688	-0.0	-0.0	-0.0	-0.0	-0.0	-0.0	-0.0	-0.0	-0.0	-0.0	-0.0	-0.0
0.41550000000000004	-0.0	-0.0	-0.0	2.4024791717529297	0.9990318417549132	-629.7321166992188	-0.0	-0.0	-0.0	-0.0	-0.0	-0.0	-0.0	-0.0	-0.0	-0.0	-0.0	-0.0
0.41600000000000004	-0.0	-0.0	-0.0	2.418209314346313	1.225619196891785	-627.588134765625	-0.0	-0.0	-0.0	-0.0	-0.0	-0.0	-0.0	-0.0	-0.0	-0.0	-0.0	-0.0
0.4165	-0.0	-0.0	-0.0	3.182514190673828	0.455331414937973	-628.5835571289062	-0.0	-0.0	-0.0	-0.0	-0.0	-0.0	-0.0	-0.0	-0.0	-0.0	-0.0	-0.0
0.417	-0.0	-0.0	-0.0	3.128899335861206	1.0369364023208618	-624.8787231445312	-0.0	-0.0	-0.0	-0.0	-0.0	-0.0	-0.0	-0.0	-0.0	-0.0	-0.0	-0.0
0.4175	-0.0	-0.0	-0.0	3.4892258644104004	0.4423163831233978	-626.8679809570312	-0.0	-0.0	-0.0	-0.0	-0.0	-0.0	-0.0	-0.0	-0.0	-0.0	-0.0	-0.0
0.418	-0.0	-0.0	-0.0	4.100307941436768	0.6961809396743774	-625.8883056640625	-0.0	-0.0	-0.0	-0.0	-0.0	-0.0	-0.0	-0.0	-0.0	-0.0	-0.0	-0.0
0.4185	-0.0	-0.0	-0.0	5.325186729431152	0.6102032661437988	-626.5140991210938	-0.0	-0.0	-0.0	-0.0	-0.0	-0.0	-0.0	-0.0	-0.0	-0.0	-0.0	-0.0
0.419	-0.0	-0.0	-0.0	4.560243606567383	0.5277835130691528	-628.0233154296875	-0.0	-0.0	-0.0	-0.0	-0.0	-0.0	-0.0	-0.0	-0.0	-0.0	-0.0	-0.0
0.4195	-0.0	-0.0	-0.0	5.427685260772705	0.0891304016113281	-628.377197265625	-0.0	-0.0	-0.0	-0.0	-0.0	-0.0	-0.0	-0.0	-0.0	-0.0	-0.0	-0.0
0.42	-0.0	-0.0	-0.0	4.303775310516357	-0.6950005292892456	-633.9151000976562	-0.0	-0.0	-0.0	-0.0	-0.0	-0.0	-0.0	-0.0	-0.0	-0.0	-0.0	-0.0
0.4205	-0.0	-0.0	-0.0	4.374979972839356	-1.6116706132888794	-637.049560546875	-0.0	-0.0	-0.0	-0.0	-0.0	-0.0	-0.0	-0.0	-0.0	-0.0	-0.0	-0.0
0.421	-0.0	-0.0	-0.0	4.025577068328857	-2.841078758239746	-635.2080688476562	-0.0	-0.0	-0.0	-0.0	-0.0	-0.0	-0.0	-0.0	-0.0	-0.0	-0.0	-0.0
0.4215	-0.0	-0.0	-0.0	4.096135139465332	-2.677682876586914	-638.4895629882812	-0.0	-0.0	-0.0	-0.0	-0.0	-0.0	-0.0	-0.0	-0.0	-0.0	-0.0	-0.0
0.422	-0.0	-0.0	-0.0	3.688122034072876	-1.886970281600952	-637.166748046875	-0.0	-0.0	-0.0	-0.0	-0.0	-0.0	-0.0	-0.0	-0.0	-0.0	-0.0	-0.0
0.4225	-0.0	-0.0	-0.0	4.111415863037109	-1.418360948562622	-635.7545166015625	-0.0	-0.0	-0.0	-0.0	-0.0	-0.0	-0.0	-0.0	-0.0	-0.0	-0.0	-0.0
0.423	-0.0	-0.0	-0.0	3.742903232574463	-0.5190436840057373	-633.2515869140625	-0.0	-0.0	-0.0	-0.0	-0.0	-0.0	-0.0	-0.0	-0.0	-0.0	-0.0	-0.0
0.4235	-0.0	-0.0	-0.0	3.847975015640259	0.5347824096679688	-631.4542236328125	-0.0	-0.0	-0.0	-0.0	-0.0	-0.0	-0.0	-0.0	-0.0	-0.0	-0.0	-0.0
0.424	-0.0	-0.0	-0.0	3.625253200531006	1.2680435180664062	-628.3391723632812	-0.0	-0.0	-0.0	-0.0	-0.0	-0.0	-0.0	-0.0	-0.0	-0.0	-0.0	-0.0
0.4245	-0.0	-0.0	-0.0	3.487376928329468	1.8839781284332275	-624.03662109375	-0.0	-0.0	-0.0	-0.0	-0.0	-0.0	-0.0	-0.0	-0.0	-0.0	-0.0	-0.0
0.425	-0.0	-0.0	-0.0	4.358888149261475	2.126713752746582	-620.98876953125	-0.0	-0.0	-0.0	-0.0	-0.0	-0.0	-0.0	-0.0	-0.0	-0.0	-0.0	-0.0
0.4255	-0.0	-0.0	-0.0	4.549736022949219	1.6724207401275637	-621.1767578125	-0.0	-0.0	-0.0	-0.0	-0.0	-0.0	-0.0	-0.0	-0.0	-0.0	-0.0	-0.0
0.426	-0.0	-0.0	-0.0	5.633016586303711	1.162942886352539	-618.4517211914062	-0.0	-0.0	-0.0	-0.0	-0.0	-0.0	-0.0	-0.0	-0.0	-0.0	-0.0	-0.0
0.4265	-0.0	-0.0	-0.0	7.132534980773926	1.3326542377471924	-616.5670166015625	-0.0	-0.0	-0.0	-0.0	-0.0	-0.0	-0.0	-0.0	-0.0	-0.0	-0.0	-0.0
0.427	-0.0	-0.0	-0.0	7.778824806213379	0.878183126449585	-613.8267822265625	-0.0	-0.0	-0.0	-0.0	-0.0	-0.0	-0.0	-0.0	-0.0	-0.0	-0.0	-0.0
0.4275	-0.0	-0.0	-0.0	8.74704360961914	1.0827949047088623	-615.8759155273438	-0.0	-0.0	-0.0	-0.0	-0.0	-0.0	-0.0	-0.0	-0.0	-0.0	-0.0	-0.0
0.428	-0.0	-0.0	-0.0	10.169998168945312	1.06508207321167	-614.2509765625	-0.0	-0.0	-0.0	-0.0	-0.0	-0.0	-0.0	-0.0	-0.0	-0.0	-0.0	-0.0
0.4285	-0.0	-0.0	-0.0	11.396245002746582	0.4018809199333191	-615.0120239257812	-0.0	-0.0	-0.0	-0.0	-0.0	-0.0	-0.0	-0.0	-0.0	-0.0	-0.0	-0.0
0.429	-0.0	-0.0	-0.0	11.855844497680664	-0.1325327754020691	-619.7764282226562	-0.0	-0.0	-0.0	-0.0	-0.0	-0.0	-0.0	-0.0	-0.0	-0.0	-0.0	-0.0
0.4295	-0.0	-0.0	-0.0	12.381662368774414	-1.3090825080871582	-619.2532348632812	-0.0	-0.0	-0.0	-0.0	-0.0	-0.0	-0.0	-0.0	-0.0	-0.0	-0.0	-0.0
0.43	-0.0	-0.0	-0.0	12.667892456054688	-3.265049695968628	-626.00244140625	-0.0	-0.0	-0.0	-0.0	-0.0	-0.0	-0.0	-0.0	-0.0	-0.0	-0.0	-0.0
0.4305	-0.0	-0.0	-0.0	12.494217872619627	-5.849409580230713	-627.1536254882812	-0.0	-0.0	-0.0	-0.0	-0.0	-0.0	-0.0	-0.0	-0.0	-0.0	-0.0	-0.0
0.431	-0.0	-0.0	-0.0	12.593138694763184	-7.571269512176514	-628.583984375	-0.0	-0.0	-0.0	-0.0	-0.0	-0.0	-0.0	-0.0	-0.0	-0.0	-0.0	-0.0
0.4315	-0.0	-0.0	-0.0	13.27780055999756	-8.11086654663086	-630.5030517578125	-0.0	-0.0	-0.0	-0.0	-0.0	-0.0	-0.0	-0.0	-0.0	-0.0	-0.0	-0.0
0.432	-0.0	-0.0	-0.0	12.875882148742676	-9.418280601501465	-631.7413330078125	-0.0	-0.0	-0.0	-0.0	-0.0	-0.0	-0.0	-0.0	-0.0	-0.0	-0.0	-0.0
0.4325	-0.0	-0.0	-0.0	12.945452690124512	-8.818949699401855	-630.3671875	-0.0	-0.0	-0.0	-0.0	-0.0	-0.0	-0.0	-0.0	-0.0	-0.0	-0.0	-0.0
0.433	-0.0	-0.0	-0.0	11.260595321655272	-6.8090033531188965	-625.1285400390625	-0.0	-0.0	-0.0	-0.0	-0.0	-0.0	-0.0	-0.0	-0.0	-0.0	-0.0	-0.0
0.4335	-0.0	-0.0	-0.0	10.19036102294922	-4.38264799118042	-618.8720092773438	-0.0	-0.0	-0.0	-0.0	-0.0	-0.0	-0.0	-0.0	-0.0	-0.0	-0.0	-0.0
0.434	-0.0	-0.0	-0.0	9.27789306640625	-3.1144418716430664	-612.8078002929688	-0.0	-0.0	-0.0	-0.0	-0.0	-0.0	-0.0	-0.0	-0.0	-0.0	-0.0	-0.0
0.4345	-0.0	-0.0	-0.0	8.910717964172363	-2.065485000610352	-608.4677124023438	-0.0	-0.0	-0.0	-0.0	-0.0	-0.0	-0.0	-0.0	-0.0	-0.0	-0.0	-0.0
0.435	-0.0	-0.0	-0.0	8.921051025390625	-2.044766664505005	-606.1189575195312	-0.0	-0.0	-0.0	-0.0	-0.0	-0.0	-0.0	-0.0	-0.0	-0.0	-0.0	-0.0
0.4355	-0.0	-0.0	-0.0	9.875883102416992	-2.3015143871307373	-603.9796752929688	-0.0	-0.0	-0.0	-0.0	-0.0	-0.0	-0.0	-0.0	-0.0	-0.0	-0.0	-0.0
0.436	-0.0	-0.0	-0.0	10.810580253601074	-2.490286350250244	-606.7206420898438	-0.0	-0.0	-0.0	-0.0	-0.0	-0.0	-0.0	-0.0	-0.0	-0.0	-0.0	-0.0
0.4365	-0.0	-0.0	-0.0	11.881216049194336	-3.910935401916504	-608.1759033203125	-0.0	-0.0	-0.0	-0.0	-0.0	-0.0	-0.0	-0.0	-0.0	-0.0	-0.0	-0.0
0.437	-0.0	-0.0	-0.0	12.305590629577637	-4.702091693878174	-606.5396118164062	-0.0	-0.0	-0.0	-0.0	-0.0	-0.0	-0.0	-0.0	-0.0	-0.0	-0.0	-0.0
0.4375	-0.0	-0.0	-0.0	12.221839904785156	-5.676707267761231	-610.5604858398438	-0.0	-0.0	-0.0	-0.0	-0.0	-0.0	-0.0	-0.0	-0.0	-0.0	-0.0	-0.0
0.438	-0.0	-0.0	-0.0	11.664300918579102	-5.849222660064697	-610.4051513671875	-0.0	-0.0	-0.0	-0.0	-0.0	-0.0	-0.0	-0.0	-0.0	-0.0	-0.0	-0.0
0.4385	-0.0	-0.0	-0.0	10.99538803100586	-5.465048313140869	-614.5330810546875	-0.0	-0.0	-0.0	-0.0	-0.0	-0.0	-0.0	-0.0	-0.0	-0.0	-0.0	-0.0
0.439	-0.0	-0.0	-0.0	10.633136749267578	-5.72141695022583	-614.2024536132812	-0.0	-0.0	-0.0	-0.0	-0.0	-0.0	-0.0	-0.0	-0.0	-0.0	-0.0	-0.0
0.4395	-0.0	-0.0	-0.0	9.634735107421877	-5.859696865081787	-615.877685546875	-0.0	-0.0	-0.0	-0.0	-0.0	-0.0	-0.0	-0.0	-0.0	-0.0	-0.0	-0.0
0.44	-0.0	-0.0	-0.0	8.765851020812988	-5.252893447875977	-616.3449096679688	-0.0	-0.0	-0.0	-0.0	-0.0	-0.0	-0.0	-0.0	-0.0	-0.0	-0.0	-0.0
0.4405	-0.0	-0.0	-0.0	8.39747142791748	-5.882606506347656	-617.00537109375	-0.0	-0.0	-0.0	-0.0	-0.0	-0.0	-0.0	-0.0	-0.0	-0.0	-0.0	-0.0
